<?xml version="1.0" standalone="no"?>
<!DOCTYPE svg PUBLIC "-//W3C//DTD SVG 20010904//EN"
 "http://www.w3.org/TR/2001/REC-SVG-20010904/DTD/svg10.dtd">
<svg version="1.0" xmlns="http://www.w3.org/2000/svg"
 width="474.000000pt" height="165.000000pt" viewBox="0 0 474.000000 165.000000"
 preserveAspectRatio="xMidYMid meet">

<g transform="translate(0.000000,165.000000) scale(0.100000,-0.100000)"
fill="#000000" stroke="none">
<path d="M0 825 l0 -825 2370 0 2370 0 0 825 0 825 -2370 0 -2370 0 0 -825z
m2945 541 c198 -37 497 -109 701 -169 78 -23 84 -23 160 -10 47 9 114 13 164
10 85 -5 260 -43 260 -57 0 -4 -66 -10 -147 -13 -164 -7 -247 -20 -468 -77
-172 -43 -317 -66 -487 -76 -145 -8 -158 7 -20 24 53 7 133 23 177 36 131 37
315 100 315 107 0 3 -15 9 -32 12 -18 3 -132 26 -253 51 -601 125 -806 126
-1224 10 -152 -43 -259 -84 -416 -160 l-120 -58 55 -7 c120 -15 292 -8 365 16
14 4 12 2 -5 -9 -44 -27 -172 -65 -270 -80 -94 -15 -326 -30 -630 -41 -85 -3
-207 -10 -270 -16 -226 -20 -364 -92 -488 -252 -55 -72 -69 -59 -27 25 93 184
288 294 600 338 279 39 552 109 805 208 278 108 501 168 740 202 94 13 420 4
515 -14z m1440 -338 c49 -25 114 -87 150 -142 25 -38 16 -40 -35 -6 -25 17
-69 39 -98 50 -73 28 -213 26 -577 -5 -275 -24 -928 -46 -914 -32 3 4 79 13
170 21 90 8 315 40 499 70 469 77 449 75 610 72 134 -2 149 -4 195 -28z
m-2482 -260 c56 -31 79 -74 78 -144 -1 -82 -36 -139 -161 -255 l-105 -99 99 0
99 0 -7 -32 c-4 -18 -9 -50 -13 -70 l-6 -38 -251 0 -251 0 212 208 c184 180
213 212 219 245 8 49 -15 77 -63 77 -50 0 -72 -16 -94 -66 l-20 -44 -74 0
c-86 0 -89 4 -54 80 50 111 161 175 287 165 40 -3 79 -13 105 -27z m-963 13
c0 -16 41 -396 43 -397 1 -1 46 89 99 200 l98 201 91 3 92 3 -6 -108 c-4 -59
-10 -208 -13 -330 l-7 -223 -85 0 -85 0 7 133 c3 72 9 161 11 197 l5 65 -97
-197 -97 -198 -63 0 c-59 0 -63 2 -63 23 0 12 -7 85 -15 162 -8 77 -15 158
-15 179 0 22 -3 36 -7 33 -3 -4 -34 -94 -69 -199 l-62 -193 -85 -3 -86 -3 56
158 c30 87 76 221 103 298 26 77 53 155 60 173 l12 32 89 0 c49 0 89 -4 89 -9z
m1484 -49 c2 -4 1 -23 -3 -42 -6 -33 -10 -35 -49 -38 -23 -2 -42 -5 -42 -7 0
-5 -76 -403 -91 -472 l-10 -53 -46 0 c-42 0 -45 2 -40 23 7 25 97 496 97 503
0 2 -18 4 -40 4 l-41 0 7 38 c4 20 9 40 11 45 6 9 240 9 247 -1z m1790 -73
c36 -17 47 -58 34 -124 l-11 -55 -43 0 -43 0 6 55 6 55 -31 0 c-17 0 -33 -4
-36 -9 -11 -17 -76 -373 -70 -382 8 -13 50 -11 62 4 10 12 32 104 32 132 0 8
-7 15 -15 15 -16 0 -19 20 -9 58 6 20 12 22 70 22 62 0 64 -1 59 -22 -3 -13
-14 -67 -25 -121 -20 -101 -33 -128 -69 -153 -33 -23 -111 -29 -153 -11 -55
23 -56 49 -9 280 41 206 53 235 106 257 30 13 110 12 139 -1z m-1594 -15 c0
-9 -18 -111 -41 -225 -22 -115 -37 -214 -34 -219 9 -14 51 -12 62 3 6 6 27
100 47 207 20 107 39 207 42 223 5 25 10 27 50 27 24 0 44 -1 44 -2 -2 -43
-94 -475 -105 -492 -18 -27 -81 -56 -124 -56 -68 0 -111 31 -111 82 0 21 76
425 85 456 3 7 21 12 45 12 30 0 40 -4 40 -16z m424 -61 c3 -42 6 -97 6 -122
0 -91 17 -74 39 41 12 62 24 123 26 136 5 18 12 22 45 22 22 0 40 -3 40 -6 0
-4 -23 -125 -51 -270 l-51 -264 -43 0 -43 0 -6 68 c-4 37 -10 101 -14 142 l-7
75 -18 -90 c-10 -49 -22 -114 -28 -142 l-10 -53 -40 0 c-32 0 -39 4 -39 19 0
20 87 485 95 509 3 7 22 12 48 12 l44 0 7 -77z m406 74 c0 -2 -15 -82 -34
-178 -18 -95 -42 -216 -51 -266 l-18 -93 -43 0 c-24 0 -44 3 -44 6 0 4 23 125
51 270 l51 264 44 0 c24 0 44 -1 44 -3z m254 -59 c3 -35 9 -101 14 -148 l8
-85 28 148 28 147 39 0 c25 0 39 -5 39 -12 0 -13 -7 -51 -64 -353 -35 -188
-30 -175 -81 -175 l-43 0 -7 107 c-10 178 -15 184 -41 53 -35 -175 -29 -160
-74 -160 -45 0 -46 4 -30 73 5 23 26 128 46 232 19 105 38 200 41 213 4 19 12
22 48 22 l43 0 6 -62z"/>
<path d="M3720 983 c0 -5 -17 -8 -37 -9 -77 -2 -158 -19 -155 -34 3 -11 0 -11
-12 0 -9 7 -16 8 -16 3 0 -4 -17 -7 -37 -5 -21 1 -58 -2 -83 -7 -45 -10 89 -8
305 5 44 2 91 4 104 4 18 0 22 4 18 20 -3 10 0 21 7 24 6 2 -13 5 -41 5 -29 1
-53 -2 -53 -6z"/>
</g>
</svg>
