<svg xmlns="http://www.w3.org/2000/svg" width="17.814" height="17.815" viewBox="0 0 17.814 17.815">
  <path id="bxs-phone" d="M20.487,17.14l-4.065-3.7a1,1,0,0,0-1.391.043l-2.393,2.461a5.741,5.741,0,0,1-2.926-1.66,5.713,5.713,0,0,1-1.66-2.926l2.459-2.394a1,1,0,0,0,.043-1.391L6.859,3.513a1,1,0,0,0-1.391-.087L3.3,5.287a1,1,0,0,0-.29.649A15.1,15.1,0,0,0,7.3,16.7,15.142,15.142,0,0,0,17.7,21c.2,0,.326-.006.359-.008a.992.992,0,0,0,.648-.291l1.86-2.171A1,1,0,0,0,20.487,17.14Z" transform="translate(-3 -3.185)" fill="#fddc3e"/>
</svg>
